<mxfile>
    <diagram id="Vkf1kccMHPyQg5MPIpvl" name="Page-1">
        <mxGraphModel dx="820" dy="500" grid="1" gridSize="10" guides="1" tooltips="1" connect="1" arrows="1" fold="1" page="1" pageScale="1" pageWidth="827" pageHeight="1169" math="0" shadow="0">
            <root>
                <mxCell id="0"/>
                <mxCell id="1" parent="0"/>
                <mxCell id="2" value="&lt;p style=&quot;margin: 0px ; margin-top: 4px ; text-align: center&quot;&gt;&lt;i&gt;&amp;lt;&amp;lt;Interface&amp;gt;&amp;gt;&lt;/i&gt;&lt;br&gt;&lt;b&gt;Command&lt;/b&gt;&lt;/p&gt;&lt;hr size=&quot;1&quot;&gt;&lt;p style=&quot;margin: 0px ; margin-left: 4px&quot;&gt;&lt;br&gt;&lt;/p&gt;&lt;hr size=&quot;1&quot;&gt;&lt;p style=&quot;margin: 0px 0px 0px 4px ; font-size: 14px&quot;&gt;+ getexecute(): void&lt;br&gt;&lt;br&gt;&lt;/p&gt;" style="verticalAlign=top;align=left;overflow=fill;fontSize=12;fontFamily=Helvetica;html=1;" vertex="1" parent="1">
                    <mxGeometry x="360" y="40" width="190" height="120" as="geometry"/>
                </mxCell>
                <mxCell id="3" value="&lt;p style=&quot;margin: 0px ; margin-top: 4px ; text-align: center&quot;&gt;&lt;b&gt;Command1&lt;/b&gt;&lt;/p&gt;&lt;hr size=&quot;1&quot;&gt;&lt;p style=&quot;margin: 0px 0px 0px 4px ; font-size: 14px&quot;&gt;&lt;font style=&quot;font-size: 14px&quot;&gt;- receiver : Receiver&lt;/font&gt;&lt;/p&gt;&lt;hr size=&quot;1&quot; style=&quot;font-size: 14px&quot;&gt;&lt;p style=&quot;margin: 0px 0px 0px 4px ; font-size: 14px&quot;&gt;+ getexecute(): void&lt;br&gt;&lt;br&gt;&lt;/p&gt;" style="verticalAlign=top;align=left;overflow=fill;fontSize=12;fontFamily=Helvetica;html=1;" vertex="1" parent="1">
                    <mxGeometry x="240" y="240" width="190" height="120" as="geometry"/>
                </mxCell>
                <mxCell id="4" value="&lt;p style=&quot;margin: 0px ; margin-top: 4px ; text-align: center&quot;&gt;&lt;b&gt;Command2&lt;/b&gt;&lt;/p&gt;&lt;hr size=&quot;1&quot;&gt;&lt;p style=&quot;margin: 0px ; margin-left: 4px&quot;&gt;&lt;span style=&quot;font-size: 14px&quot;&gt;- receiver : Receiver&lt;/span&gt;&lt;/p&gt;&lt;hr size=&quot;1&quot;&gt;&lt;p style=&quot;margin: 0px 0px 0px 4px ; font-size: 14px&quot;&gt;+ getexecute(): void&lt;br&gt;&lt;br&gt;&lt;/p&gt;" style="verticalAlign=top;align=left;overflow=fill;fontSize=12;fontFamily=Helvetica;html=1;" vertex="1" parent="1">
                    <mxGeometry x="520" y="240" width="190" height="120" as="geometry"/>
                </mxCell>
                <mxCell id="11" value="&lt;p style=&quot;margin: 0px ; margin-top: 4px ; text-align: center&quot;&gt;&lt;b&gt;Receiver&lt;/b&gt;&lt;/p&gt;&lt;hr size=&quot;1&quot;&gt;&lt;p style=&quot;margin: 0px 0px 0px 4px ; font-size: 14px&quot;&gt;&lt;br&gt;&lt;/p&gt;&lt;hr size=&quot;1&quot; style=&quot;font-size: 14px&quot;&gt;&lt;p style=&quot;margin: 0px 0px 0px 4px ; font-size: 14px&quot;&gt;+ runCommand1(): void&lt;/p&gt;&lt;p style=&quot;margin: 0px 0px 0px 4px ; font-size: 14px&quot;&gt;+ runCommand2(): void&lt;br&gt;&lt;br&gt;&lt;/p&gt;" style="verticalAlign=top;align=left;overflow=fill;fontSize=12;fontFamily=Helvetica;html=1;" vertex="1" parent="1">
                    <mxGeometry x="370" y="440" width="190" height="120" as="geometry"/>
                </mxCell>
                <mxCell id="12" value="&lt;p style=&quot;margin: 0px ; margin-top: 4px ; text-align: center&quot;&gt;&lt;b&gt;Invoker&lt;/b&gt;&lt;/p&gt;&lt;hr size=&quot;1&quot;&gt;&lt;p style=&quot;margin: 0px 0px 0px 4px ; font-size: 14px&quot;&gt;-commands:{ id: String}: Command&lt;/p&gt;&lt;hr size=&quot;1&quot; style=&quot;font-size: 14px&quot;&gt;&lt;p style=&quot;margin: 0px 0px 0px 4px ; font-size: 14px&quot;&gt;+ getexecute(string) : void&lt;br&gt;+ register(string), Command : void&lt;/p&gt;" style="verticalAlign=top;align=left;overflow=fill;fontSize=12;fontFamily=Helvetica;html=1;" vertex="1" parent="1">
                    <mxGeometry x="20" y="40" width="230" height="120" as="geometry"/>
                </mxCell>
                <mxCell id="18" value="" style="endArrow=open;endSize=12;dashed=1;html=1;" edge="1" parent="1">
                    <mxGeometry y="-40" width="160" relative="1" as="geometry">
                        <mxPoint x="250" y="80" as="sourcePoint"/>
                        <mxPoint x="360" y="80" as="targetPoint"/>
                        <mxPoint as="offset"/>
                    </mxGeometry>
                </mxCell>
                <mxCell id="19" value="" style="endArrow=open;html=1;endSize=12;startArrow=diamondThin;startSize=14;startFill=0;edgeStyle=orthogonalEdgeStyle;align=left;verticalAlign=bottom;entryX=0;entryY=0;entryDx=0;entryDy=0;" edge="1" parent="1" target="11">
                    <mxGeometry x="-1" y="-36" relative="1" as="geometry">
                        <mxPoint x="430" y="360" as="sourcePoint"/>
                        <mxPoint x="590" y="360" as="targetPoint"/>
                        <mxPoint x="-30" y="-16" as="offset"/>
                    </mxGeometry>
                </mxCell>
                <mxCell id="21" value="" style="endArrow=open;html=1;endSize=12;startArrow=diamondThin;startSize=14;startFill=0;edgeStyle=orthogonalEdgeStyle;align=left;verticalAlign=bottom;entryX=0;entryY=0;entryDx=0;entryDy=0;" edge="1" parent="1">
                    <mxGeometry x="-1" y="-36" relative="1" as="geometry">
                        <mxPoint x="520" y="360" as="sourcePoint"/>
                        <mxPoint x="490" y="440" as="targetPoint"/>
                        <mxPoint x="-30" y="-16" as="offset"/>
                    </mxGeometry>
                </mxCell>
                <mxCell id="22" value="" style="strokeWidth=2;html=1;shape=mxgraph.flowchart.annotation_1;align=left;pointerEvents=1;rotation=90;" vertex="1" parent="1">
                    <mxGeometry x="435.43" y="76.31" width="50" height="289.13" as="geometry"/>
                </mxCell>
                <mxCell id="24" value="" style="endArrow=block;startArrow=none;endFill=0;startFill=0;endSize=8;html=1;verticalAlign=bottom;dashed=1;labelBackgroundColor=none;exitX=0.023;exitY=0.56;exitDx=0;exitDy=0;exitPerimeter=0;entryX=0.426;entryY=1.008;entryDx=0;entryDy=0;entryPerimeter=0;" edge="1" parent="1" source="22" target="2">
                    <mxGeometry width="160" relative="1" as="geometry">
                        <mxPoint x="460" y="170" as="sourcePoint"/>
                        <mxPoint x="443" y="170" as="targetPoint"/>
                    </mxGeometry>
                </mxCell>
            </root>
        </mxGraphModel>
    </diagram>
</mxfile>